<?xml version="1.0" encoding="UTF-8"?>
<svg id="Layer_1" xmlns="http://www.w3.org/2000/svg" viewBox="0 0 256 256">
  <defs>
    <style>
      .cls-1 {
        fill: #fff;
      }

      .cls-2 {
        fill: #530075;
      }
    </style>
  </defs>
  <path class="cls-2" d="M232.74,187.11h-8.51V22.72l-6.94-6.9-.51-.51h-37.48l-.52.51-2.3,2.27-.74.78-.74.74-.4.41-4.2-4.2-.71-.71h-53.81l-.67.71-.06.06-.74.74-.74.74-.73,1.02-1.52,1.47-.41.45-4.48-4.48-.43-.43h-53.64l-.4.43-.33.35-.78.74-3.68,3.72-3.72,3.68-.74.78-2.99,2.95-.73.77-3.73,3.69-.73.77-2.99,2.95-4.46,4.34-.74.73v90.01l4.87,4.91-.41.45-1.47,1.48-.78.73-.73.74-.74.74-.74.77v90.02l7.45,7.16h53.64l1.47-1.48,1.35-1.59.74-.78,1.18-1.14,4.91,4.86h53.77l1.47-1.47.78-.74,1.31-1.35,1.31-1.3,4.91,4.91h53.43l.74-.78,3.72-3.68,3.72-3.73.74-.73,2.99-2.99.73-.74,3.73-3.72.73-.74,2.99-2.98,4.46-4.46.74-.74.73-.74v-17.63l-7.44-7.45ZM106.1,140.02h-32.11v18.37h26.67v17.63h-26.67v18.62h32.07v17.64h-53.6v-90.02h53.64v17.76ZM106.1,53.32h-21.56v-12.97h-10.55v54.62h10.51v-18.61h-5.85v-17.64h27.45v53.76h-53.64V22.47h53.64v30.85ZM169.52,140.02l-32.08,54.62h32.08v17.64h-53.64v-17.64l32.12-54.62h-32.12v-17.63h53.64v17.63ZM169.52,53.32h-21.52v-12.97h-10.56v54.62h10.56v-18.61h-5.89v-17.64h27.41v53.76h-53.64V22.47h53.64v30.85ZM232.74,212.32h-53.44v-17.76h16V40.23h-16v-17.51h37.48v171.84h15.96v17.76Z"/>
  <polygon class="cls-1" points="148 53.32 148 40.35 137.44 40.35 137.44 94.97 148 94.97 148 76.36 142.11 76.36 142.11 58.72 169.52 58.72 169.52 112.48 115.88 112.48 115.88 22.47 169.52 22.47 169.52 53.32 148 53.32"/>
  <polygon class="cls-1" points="84.54 53.32 84.54 40.35 73.99 40.35 73.99 94.97 84.5 94.97 84.5 76.36 78.65 76.36 78.65 58.72 106.1 58.72 106.1 112.48 52.46 112.48 52.46 22.47 106.1 22.47 106.1 53.32 84.54 53.32"/>
  <polygon class="cls-1" points="73.99 140.02 73.99 158.39 100.66 158.39 100.66 176.02 73.99 176.02 73.99 194.64 106.06 194.64 106.06 212.28 52.46 212.28 52.46 122.26 106.1 122.26 106.1 140.02 73.99 140.02"/>
  <polygon class="cls-1" points="169.52 140.02 137.44 194.64 169.52 194.64 169.52 212.28 115.88 212.28 115.88 194.64 148 140.02 115.88 140.02 115.88 122.39 169.52 122.39 169.52 140.02"/>
  <polygon class="cls-1" points="232.74 194.56 232.74 212.32 179.3 212.32 179.3 194.56 195.3 194.56 195.3 40.23 179.3 40.23 179.3 22.72 216.78 22.72 216.78 194.56 232.74 194.56"/>
</svg>